<svg width="123" height="55" viewBox="0 0 123 55" fill="none" xmlns="http://www.w3.org/2000/svg">
<path d="M15.9134 4.3137C17.0301 5.23278 19.15 6.51182 22.4605 6.71393V45.4613H2.5963V17.616C3.89623 16.9689 5.0901 16.1277 6.13689 15.1214C8.05471 13.2744 10.1437 10.1365 9.99024 5.31539L15.9075 4.3137H15.9134ZM16.5831 2.10083L7.76704 3.59821C9.25999 13.4956 0.53833 16.2499 0.53833 16.2499V47.5252H24.5259V4.62645C24.1231 4.66038 23.7366 4.67514 23.3678 4.67514C18.6381 4.67514 16.589 2.10526 16.589 2.10526L16.5831 2.10083Z" fill="#007A9B"/>
<path d="M39.3432 10.6101C39.7071 10.7566 40.0573 11.0792 40.3936 11.5779C40.7701 12.1506 41.1077 12.7479 41.4041 13.3659C41.7405 14.0543 42.1 14.787 42.4826 15.564C42.8576 16.3255 43.286 17.0595 43.7645 17.7606C44.2165 18.4276 44.748 19.0369 45.3475 19.5752C45.9187 20.0885 46.6154 20.4417 47.3671 20.599C47.564 20.6884 47.7697 20.7571 47.9808 20.8041C48.1903 20.8483 48.295 20.9516 48.295 21.1168C48.295 21.226 48.2139 21.3632 48.0487 21.5269C47.7294 21.6146 47.3983 21.6515 47.0676 21.6361C46.8847 21.6361 46.7032 21.6258 46.5218 21.6081C46.3403 21.5904 46.184 21.5712 46.0571 21.5535C44.511 21.2811 43.2148 20.6536 42.1683 19.6711C41.1078 18.6682 40.2908 17.4359 39.7799 16.0685C39.4701 15.4863 39.1834 14.8859 38.9198 14.2672C38.6732 13.6806 38.3719 13.1185 38.0199 12.5884C37.7012 12.1093 37.3019 11.6891 36.8397 11.3463C36.3575 11.0074 35.778 10.835 35.1889 10.855C34.8245 10.855 34.5988 10.9288 34.5206 11.0733C34.4425 11.2179 34.3967 11.5159 34.3967 11.9467V17.5703C34.3763 17.9342 34.4373 18.2981 34.5752 18.6355C34.6789 18.8565 34.8512 19.0381 35.0665 19.1533C35.3015 19.2709 35.5559 19.3449 35.8174 19.3716C36.1124 19.409 36.4399 19.4636 36.7999 19.5354C36.87 19.5595 36.9443 19.5691 37.0182 19.5634C37.1563 19.5622 37.2939 19.5806 37.4269 19.618C37.4864 19.6326 37.5387 19.6683 37.5739 19.7185C37.6092 19.7687 37.6251 19.8299 37.6187 19.8909C37.6187 20.1461 37.5272 20.2995 37.3457 20.3541C37.0778 20.4184 36.8024 20.4462 36.527 20.4367C35.872 20.4367 35.217 20.4048 34.562 20.3408C33.9055 20.2774 33.2608 20.2449 32.6235 20.2449C32.0599 20.2449 31.4993 20.273 30.9446 20.3276C30.39 20.3821 29.8308 20.4087 29.2673 20.4087C29.1092 20.4228 28.95 20.3996 28.8026 20.3408C28.7303 20.2951 28.6934 20.1461 28.6934 19.8909C28.6935 19.8289 28.7155 19.7688 28.7554 19.7214C28.7953 19.6739 28.8507 19.642 28.9118 19.6312C29.0951 19.5776 29.2819 19.5367 29.4709 19.5088C29.6981 19.4719 29.94 19.4306 30.1952 19.3849C30.449 19.34 30.6933 19.2528 30.9181 19.1267C31.1726 18.9925 31.3821 18.7864 31.5203 18.5341C31.6585 18.2817 31.7195 17.9943 31.6955 17.7075V12.0839C31.6955 10.5378 31.7093 9.00012 31.7369 7.47078C31.7644 5.94144 31.7782 4.40423 31.7782 2.85916C31.7957 2.56101 31.7194 2.26485 31.5598 2.01237C31.4203 1.8176 31.2247 1.66993 30.9992 1.58897C30.7662 1.50684 30.5229 1.4572 30.2764 1.44145C30.0211 1.42374 29.7807 1.40457 29.5535 1.38686C29.363 1.37647 29.1748 1.33974 28.9944 1.27769C28.9264 1.25567 28.8679 1.21135 28.8283 1.15191C28.7886 1.09247 28.7702 1.02139 28.776 0.950189C28.776 0.694972 28.8705 0.544496 29.0622 0.498763C29.2557 0.453567 29.4537 0.430796 29.6523 0.430902C29.8515 0.430902 30.0565 0.441229 30.266 0.458932C30.4755 0.476635 30.6791 0.485486 30.8797 0.485486H33.2549C33.9433 0.485486 34.6392 0.471717 35.3424 0.444179C36.0456 0.416642 36.7414 0.403364 37.4298 0.404348C38.0821 0.410142 38.7316 0.487815 39.3668 0.635961C40.0612 0.791683 40.7192 1.07914 41.3053 1.48275C41.9245 1.91214 42.438 2.47662 42.8071 3.13355C43.2064 3.822 43.4066 4.7042 43.4075 5.78015C43.4114 6.34228 43.2852 6.89769 43.0387 7.40292C42.7939 7.90131 42.4712 8.35747 42.0828 8.75425C41.6881 9.15758 41.2485 9.51445 40.7727 9.8179C40.3151 10.1147 39.8375 10.3794 39.3432 10.6101ZM40.6267 5.69753C40.6412 5.04062 40.5202 4.38778 40.2712 3.77971C40.0511 3.25599 39.7204 2.78598 39.3019 2.40183C38.8798 2.02113 38.3829 1.73272 37.8429 1.55504C37.2442 1.35842 36.6172 1.26172 35.987 1.26884C35.3497 1.26884 34.9313 1.38244 34.7316 1.60962C34.532 1.83681 34.4336 2.16874 34.4366 2.60542V3.54072C34.4366 4.2695 34.4272 5.08826 34.4085 5.99701C34.3898 6.90576 34.381 7.72452 34.382 8.45329C34.382 8.72622 34.382 8.9593 34.3687 9.14961C34.3552 9.31098 34.3738 9.47342 34.4233 9.62759C34.4479 9.69284 34.4874 9.75146 34.5386 9.79883C34.5898 9.84619 34.6514 9.881 34.7183 9.90051C34.9541 9.9649 35.1985 9.99227 35.4427 9.98165C36.1287 9.98525 36.8136 9.92599 37.4888 9.80462C38.0802 9.7058 38.6439 9.48254 39.1426 9.14961C39.6172 8.81859 39.9943 8.36615 40.2343 7.83959C40.4959 7.2849 40.6267 6.57088 40.6267 5.69753Z" fill="white"/>
<path d="M64.179 11.9746C64.1891 12.1628 64.1515 12.3506 64.0698 12.5205C63.9736 12.5367 63.8766 12.5481 63.7792 12.5544C63.6836 12.5642 63.5876 12.5692 63.4915 12.5691H56.698C56.6047 12.5728 56.5126 12.5912 56.4251 12.6237C56.3705 12.6237 56.3336 12.696 56.3159 12.8421C56.2967 12.9888 56.2874 13.1366 56.2879 13.2846V13.503C56.3031 14.2196 56.3911 14.9329 56.5505 15.6318C56.6881 16.2635 56.9428 16.864 57.3014 17.402C57.6482 17.9139 58.1172 18.3312 58.666 18.6162C59.2295 18.9171 59.9298 19.0676 60.7667 19.0676C61.0736 19.071 61.38 19.0433 61.6814 18.985C61.9363 18.9335 62.1839 18.8513 62.419 18.7401C62.6578 18.6237 62.8859 18.4865 63.1006 18.33C63.3277 18.1667 63.578 17.9848 63.8515 17.7841C63.921 17.7577 63.9959 17.7486 64.0698 17.7576C64.1967 17.7576 64.2601 17.8122 64.2601 17.9213C64.2453 18.0509 64.1941 18.1736 64.1126 18.2754C64.0074 18.4296 63.8931 18.5774 63.7703 18.718C63.6457 18.8614 63.5137 18.9983 63.3749 19.1281C63.2392 19.255 63.133 19.3464 63.0607 19.401C62.5733 19.8275 62.0204 20.1728 61.4232 20.4234C60.8211 20.6457 60.1824 20.7523 59.5408 20.7376C58.7623 20.756 57.9891 20.6049 57.2748 20.295C56.6338 20.0052 56.0654 19.5763 55.6107 19.0396C55.1492 18.489 54.7985 17.8542 54.578 17.1704C54.3325 16.427 54.2017 15.6504 54.1901 14.8676C54.1728 13.9966 54.255 13.1265 54.435 12.2741C54.6008 11.4423 54.9055 10.6443 55.3363 9.91369C55.7484 9.22014 56.3154 8.6314 56.993 8.19356C57.6746 7.74803 58.4978 7.52527 59.4626 7.52527C60.5543 7.52527 61.4886 7.75737 62.2656 8.22158C63.0425 8.6858 63.5928 9.46374 63.9164 10.5554C63.9878 10.7887 64.0469 11.0255 64.0934 11.265C64.1349 11.4998 64.1635 11.7367 64.179 11.9746ZM61.913 10.6366C61.9126 10.3251 61.8426 10.0176 61.7079 9.73666C61.5771 9.45277 61.3973 9.1941 61.1768 8.97249C60.9599 8.75554 60.7055 8.57961 60.4259 8.4532C60.1561 8.32905 59.8629 8.26416 59.5659 8.26289C59.1753 8.26519 58.7913 8.36347 58.4476 8.54909C58.083 8.74058 57.7549 8.99476 57.4784 9.29999C57.1969 9.6091 56.9708 9.96443 56.8101 10.3504C56.6513 10.7165 56.5675 11.1108 56.5637 11.5099C56.5637 11.5837 56.6227 11.6324 56.7408 11.6574C56.8756 11.6874 57.0129 11.7056 57.1509 11.712C57.3007 11.7209 57.451 11.7209 57.6008 11.712C57.7484 11.7032 57.8369 11.6987 57.8738 11.6987C58.3822 11.6987 58.8056 11.7032 59.1439 11.712C59.4823 11.7209 59.8963 11.7066 60.3861 11.6692C60.6044 11.6515 60.8051 11.6338 60.9865 11.6147C61.1502 11.6008 61.3111 11.5641 61.4645 11.5055C61.6023 11.4489 61.7175 11.3482 61.792 11.2193C61.8831 11.0392 61.9249 10.8381 61.913 10.6366Z" fill="white"/>
<path d="M75.6137 7.33496C75.6563 7.33925 75.6972 7.35385 75.733 7.3775C75.7687 7.40114 75.7981 7.43312 75.8187 7.47068C75.8705 7.53303 75.9038 7.60869 75.9146 7.68902C75.9141 7.76266 75.9047 7.83597 75.8866 7.90736C75.8691 7.97883 75.8602 8.05212 75.86 8.12569V9.60094L75.9146 9.62897C75.9981 9.59036 76.0725 9.53456 76.1329 9.46522C76.7192 8.95998 77.3492 8.50776 78.0154 8.11389C78.689 7.73119 79.4537 7.53798 80.2282 7.55477C80.8521 7.53372 81.4726 7.65479 82.0428 7.90883C82.505 8.12868 82.904 8.46215 83.2023 8.87807C83.5072 9.32042 83.712 9.82382 83.8028 10.3533C83.9151 10.961 83.9699 11.5779 83.9665 12.1959C83.9665 12.5598 83.9577 12.9143 83.94 13.2596C83.9208 13.6062 83.9119 13.9603 83.9119 14.3247V18.3078C83.9119 18.9255 84.0939 19.3076 84.4578 19.4541C84.886 19.6109 85.34 19.685 85.7958 19.6725C85.8349 19.6692 85.874 19.6797 85.9062 19.702C85.9385 19.7243 85.9621 19.7572 85.9728 19.7949C86.0009 19.8786 86.0148 19.9663 86.0142 20.0545C86.0139 20.1292 85.9999 20.2033 85.9728 20.2729C85.9463 20.3452 85.8681 20.382 85.7412 20.382C85.4904 20.3825 85.2397 20.3688 84.9903 20.3407C84.741 20.3135 84.4903 20.2997 84.2394 20.2994H82.1918C82.0443 20.2994 81.8967 20.2994 81.7492 20.3142C81.6017 20.3289 81.4542 20.3363 81.3066 20.354C81.1591 20.3717 81.0116 20.3865 80.8641 20.3953C80.7165 20.4042 80.569 20.4086 80.4215 20.4086C80.2615 20.4046 80.1019 20.3913 79.9435 20.3688C79.734 20.3412 79.6293 20.2429 79.6293 20.0737C79.6219 19.9972 79.6391 19.9204 79.6784 19.8543C79.7176 19.7883 79.7769 19.7364 79.8476 19.7064C80.0176 19.6351 80.197 19.5889 80.3802 19.5692C80.5897 19.5412 80.7992 19.5057 81.0086 19.46C81.209 19.4191 81.388 19.3076 81.5132 19.1458C81.6699 18.9315 81.7555 18.6736 81.7581 18.4082C81.7758 18.0984 81.7861 17.8343 81.7861 17.616C81.8038 17.2167 81.8127 16.8233 81.8127 16.4358V12.9291C81.8133 12.4645 81.7906 12.0002 81.7448 11.5379C81.7083 11.117 81.5974 10.706 81.4173 10.3238C81.245 9.96914 80.9754 9.67083 80.6398 9.46374C80.2931 9.24541 79.8299 9.13624 79.2472 9.13624C78.8623 9.13094 78.4792 9.19079 78.1142 9.31327C77.7515 9.44334 77.4002 9.60321 77.0638 9.79125C76.9006 9.88271 76.696 10.0007 76.4501 10.1453C76.2381 10.257 76.0629 10.4276 75.9456 10.6366C75.8982 10.8014 75.8661 10.9703 75.8497 11.1411C75.8217 11.3698 75.7995 11.6294 75.7818 11.92C75.7641 12.2107 75.7538 12.5101 75.7538 12.8199V18.1426C75.7475 18.4644 75.8419 18.78 76.0238 19.0455C76.1014 19.1666 76.2031 19.2704 76.3227 19.3504C76.4423 19.4303 76.5771 19.4847 76.7186 19.5102C76.9767 19.5464 77.237 19.5646 77.4976 19.5648C77.6488 19.5646 77.7988 19.5921 77.9401 19.6459C78.0493 19.6833 78.1039 19.7816 78.1039 19.9409C78.1086 20.0001 78.1013 20.0595 78.0825 20.1158C78.0638 20.172 78.0339 20.224 77.9947 20.2684C77.8982 20.3059 77.7997 20.3379 77.6997 20.3643C77.5959 20.3763 77.4913 20.3808 77.3869 20.3776C76.9925 20.3779 76.5985 20.3552 76.2067 20.3098C75.8263 20.2639 75.4436 20.2407 75.0604 20.2404C74.6003 20.24 74.1404 20.2631 73.6826 20.3098C73.24 20.354 72.7768 20.3776 72.3047 20.3776C72.1784 20.3808 72.0528 20.3577 71.9359 20.3098C71.8375 20.2635 71.7883 20.1588 71.7883 19.9955C71.7916 19.9383 71.8115 19.8833 71.8456 19.8372C71.8796 19.791 71.9264 19.7559 71.9801 19.7359C72.1283 19.6649 72.2835 19.61 72.4434 19.5721C72.6236 19.5269 72.8014 19.4722 72.9759 19.4084C73.1282 19.3581 73.2646 19.2685 73.3713 19.1487C73.5376 18.9004 73.6391 18.6143 73.6663 18.3167C73.7074 18.0135 73.73 17.708 73.7342 17.402V11.7828C73.7401 11.4072 73.7035 11.032 73.625 10.6646C73.6108 10.572 73.5781 10.4831 73.5289 10.4033C73.4798 10.3235 73.4151 10.2543 73.3388 10.1999C73.1871 10.0927 73.0219 10.0058 72.8476 9.94172C72.6735 9.87681 72.5186 9.82223 72.3829 9.77649C72.2472 9.73076 72.1778 9.65405 72.1778 9.54488V9.4903C72.2512 9.36097 72.3519 9.24921 72.4729 9.16279C72.5451 9.10821 72.7414 8.98134 73.063 8.7807C73.3846 8.58007 73.7283 8.37649 74.0956 8.167C74.463 7.95752 74.8038 7.76721 75.1047 7.5946C75.2642 7.48946 75.4349 7.40238 75.6137 7.33496Z" fill="white"/>
<path d="M103.207 11.9746C103.217 12.1629 103.179 12.3506 103.097 12.5205C103.003 12.5386 102.907 12.5519 102.811 12.5603C102.713 12.5704 102.615 12.5753 102.516 12.575H95.7286C95.6353 12.5787 95.5432 12.5972 95.4556 12.6296C95.401 12.6296 95.3642 12.7019 95.3465 12.848C95.3273 12.9947 95.318 13.1426 95.3184 13.2905V13.5089C95.3334 14.2254 95.4204 14.9386 95.5781 15.6377C95.7157 16.2694 95.9704 16.8699 96.329 17.408C96.6758 17.9198 97.1448 18.3372 97.6936 18.6221C98.2571 18.923 98.9574 19.0735 99.7943 19.0735C100.101 19.0769 100.408 19.0492 100.709 18.9909C100.964 18.9395 101.212 18.8572 101.447 18.746C101.685 18.6296 101.913 18.4924 102.128 18.3359C102.355 18.1726 102.606 17.9907 102.879 17.79C102.949 17.7636 103.024 17.7545 103.097 17.7635C103.224 17.7635 103.288 17.8181 103.288 17.9272C103.273 18.0568 103.222 18.1795 103.14 18.2813C103.035 18.4355 102.921 18.5833 102.798 18.7239C102.674 18.8677 102.542 19.0046 102.403 19.134C102.303 19.2303 102.198 19.3214 102.088 19.4069C101.601 19.8335 101.048 20.1787 100.451 20.4293C99.8488 20.6518 99.2101 20.7584 98.5684 20.7435C97.7899 20.7619 97.0168 20.6109 96.3024 20.3009C95.6615 20.0111 95.093 19.5822 94.6383 19.0455C94.1768 18.4949 93.8261 17.8602 93.6057 17.1763C93.3632 16.4359 93.2344 15.6629 93.2236 14.8838C93.2063 14.0128 93.2885 13.1427 93.4685 12.2903C93.6343 11.4585 93.939 10.6606 94.3699 9.92993C94.7807 9.23736 95.3456 8.64875 96.0207 8.20979C96.7032 7.76427 97.5264 7.5415 98.4902 7.5415C99.5819 7.5415 100.516 7.77361 101.293 8.23782C102.07 8.70203 102.62 9.47998 102.944 10.5717C103.015 10.8049 103.075 11.0418 103.121 11.2813C103.162 11.5107 103.191 11.7421 103.207 11.9746ZM100.941 10.6366C100.94 10.3253 100.87 10.0179 100.737 9.73667C100.605 9.45301 100.425 9.19444 100.204 8.97249C99.9875 8.75555 99.7331 8.57962 99.4536 8.45321C99.1838 8.32906 98.8905 8.26416 98.5935 8.2629C98.2029 8.2652 97.8189 8.36348 97.4752 8.5491C97.1106 8.74059 96.7825 8.99477 96.506 9.3C96.2245 9.60911 95.9985 9.96444 95.8377 10.3504C95.6789 10.7165 95.5952 11.1108 95.5914 11.5099C95.5914 11.5837 95.6504 11.6324 95.7699 11.6574C95.9042 11.6875 96.041 11.7058 96.1785 11.712C96.3259 11.7206 96.4737 11.7206 96.6211 11.712C96.7686 11.7032 96.8571 11.6988 96.894 11.6988C97.4034 11.6988 97.8269 11.7032 98.1642 11.712C98.5015 11.7209 98.9151 11.7071 99.4049 11.6707C99.6232 11.653 99.8238 11.6353 100.005 11.6161C100.169 11.6025 100.33 11.5657 100.483 11.507C100.622 11.4512 100.737 11.3503 100.811 11.2208C100.905 11.041 100.95 10.8394 100.941 10.6366Z" fill="white"/>
<path d="M121.192 11.9746C121.202 12.1629 121.164 12.3506 121.082 12.5205C120.894 12.5552 120.702 12.5735 120.51 12.575H113.714C113.62 12.5787 113.528 12.5972 113.441 12.6296C113.386 12.6296 113.349 12.7019 113.331 12.848C113.314 12.9948 113.305 13.1426 113.305 13.2905V13.5089C113.319 14.2254 113.406 14.9387 113.565 15.6377C113.702 16.2694 113.956 16.8698 114.314 17.408C114.661 17.9195 115.13 18.3367 115.679 18.6221C116.242 18.923 116.943 19.0735 117.781 19.0735C118.088 19.0769 118.394 19.0492 118.695 18.9909C118.95 18.9396 119.198 18.8573 119.433 18.746C119.672 18.6293 119.901 18.4921 120.116 18.3359C120.343 18.1726 120.593 17.9907 120.866 17.79C120.935 17.764 121.01 17.7549 121.084 17.7635C121.211 17.7635 121.276 17.8181 121.276 17.9272C121.261 18.0569 121.21 18.1798 121.128 18.2813C121.023 18.4355 120.91 18.5833 120.787 18.7239C120.659 18.8714 120.528 19.0071 120.392 19.134C120.256 19.2609 120.15 19.3523 120.078 19.4069C119.59 19.8328 119.037 20.178 118.44 20.4293C117.838 20.6516 117.198 20.7582 116.556 20.7435C115.778 20.7619 115.006 20.6109 114.292 20.3009C113.651 20.0107 113.082 19.5819 112.626 19.0455C112.165 18.4945 111.815 17.8599 111.594 17.1763C111.352 16.4357 111.223 15.6628 111.212 14.8838C111.195 14.0128 111.277 13.1426 111.458 12.2903C111.623 11.4586 111.927 10.6606 112.358 9.92993C112.769 9.23729 113.335 8.6487 114.01 8.20979C114.692 7.76427 115.515 7.5415 116.48 7.5415C117.571 7.5415 118.506 7.77361 119.283 8.23782C120.06 8.70203 120.61 9.47998 120.933 10.5717C121.005 10.8049 121.065 11.0417 121.112 11.2813C121.151 11.5108 121.177 11.7422 121.192 11.9746ZM118.927 10.6366C118.927 10.3251 118.857 10.0176 118.722 9.73667C118.591 9.45271 118.41 9.19405 118.189 8.97249C117.973 8.75557 117.719 8.57963 117.44 8.45321C117.17 8.32923 116.877 8.26435 116.58 8.2629C116.189 8.26538 115.804 8.36364 115.46 8.5491C115.096 8.7406 114.768 8.99479 114.492 9.3C114.21 9.60867 113.983 9.96408 113.823 10.3504C113.664 10.7166 113.581 11.1109 113.578 11.5099C113.578 11.5837 113.637 11.6324 113.755 11.6574C113.89 11.6875 114.027 11.7057 114.165 11.712C114.315 11.7209 114.465 11.7209 114.615 11.712C114.762 11.7032 114.851 11.6988 114.888 11.6988C115.396 11.6988 115.819 11.7032 116.157 11.712C116.494 11.7209 116.908 11.7071 117.399 11.6707C117.617 11.653 117.816 11.6353 117.999 11.6161C118.163 11.6023 118.324 11.5656 118.477 11.507C118.615 11.4522 118.73 11.3537 118.806 11.2267C118.898 11.0441 118.94 10.8405 118.927 10.6366Z" fill="white"/>
<path d="M46.603 27.7494C46.4562 28.1952 46.3689 28.6585 46.3433 29.1272C46.2981 29.7006 46.2435 30.2602 46.1796 30.8061C46.1288 31.286 46.0375 31.7607 45.9067 32.2253C45.7886 32.625 45.5939 32.8257 45.3166 32.8257C45.0997 32.8257 44.9713 32.7386 44.9359 32.566C44.898 32.3497 44.893 32.1289 44.9212 31.911C44.9492 31.647 44.9713 31.3608 44.9905 31.051C45.01 30.7533 44.9631 30.455 44.8533 30.1776C44.7455 29.9423 44.5564 29.7537 44.3208 29.6465C44.0239 29.5008 43.7065 29.4013 43.3796 29.3515C42.9957 29.2855 42.6087 29.2402 42.22 29.2158C41.8099 29.1882 41.4234 29.1744 41.0605 29.1744C40.7875 29.1744 40.5412 29.1744 40.3228 29.1877C40.1045 29.201 39.923 29.201 39.777 29.201C39.6309 29.201 39.5321 29.201 39.4229 29.1877C39.3699 29.1831 39.3164 29.1905 39.2666 29.2094C39.2168 29.2283 39.1719 29.2582 39.1353 29.2969C39.0321 29.424 38.9663 29.5772 38.945 29.7395C38.8914 30.0502 38.8686 30.3655 38.8771 30.6807L38.8225 34.0103C38.7861 35.6124 38.7906 37.2136 38.8358 38.8137C38.881 40.4139 38.8855 42.015 38.8491 43.6171C38.8491 43.9122 38.8535 44.2033 38.8623 44.4905C38.8716 44.7836 38.9036 45.0756 38.9582 45.3638C39.0497 45.8742 39.2774 46.2155 39.6413 46.3876C40.0025 46.5597 40.3899 46.6704 40.7875 46.7151L41.8645 46.8376C42.1831 46.8745 42.3425 47.0013 42.3425 47.2197C42.3425 47.5147 42.279 47.6696 42.1521 47.6844C41.971 47.7049 41.7886 47.7138 41.6063 47.7109C40.8775 47.7109 40.1542 47.6883 39.4362 47.6431C38.7183 47.5978 37.9949 47.5752 37.2661 47.5752C36.6111 47.5752 35.9605 47.5978 35.3144 47.6431C34.6682 47.6883 34.0181 47.7109 33.3641 47.7109C33.2132 47.7106 33.0625 47.7018 32.9127 47.6844C32.7578 47.6652 32.6811 47.556 32.6811 47.3569C32.6701 47.2691 32.6883 47.1801 32.7328 47.1036C32.7773 47.0271 32.8457 46.9673 32.9274 46.9335C33.0925 46.8695 33.2682 46.837 33.4452 46.8376C33.5644 46.8413 33.6835 46.8324 33.8008 46.811C34.234 46.7771 34.6607 46.6853 35.0695 46.5381C35.3566 46.4336 35.6075 46.2487 35.7924 46.0055C35.9678 45.7487 36.08 45.454 36.1199 45.1455C36.1795 44.7208 36.2066 44.2923 36.201 43.8635V30.6423C36.201 30.5508 36.1966 30.3827 36.1877 30.1378C36.1855 29.9684 36.1722 29.7994 36.1479 29.6318C36.1115 29.4685 35.902 29.3549 35.5194 29.291C35.1136 29.2254 34.7031 29.1933 34.292 29.1951H32.6029C32.1912 29.194 31.7816 29.2536 31.3873 29.3721C30.9606 29.513 30.5727 29.7514 30.2543 30.0684C30.1113 30.2432 29.9923 30.4362 29.9002 30.6423C29.7527 30.9374 29.6052 31.2324 29.437 31.557C29.2688 31.8815 29.1124 32.1618 28.959 32.4156C28.8056 32.6693 28.6905 32.7977 28.6182 32.7977C28.4731 32.8088 28.3285 32.7703 28.2081 32.6885C28.1564 32.6348 28.1174 32.5703 28.0939 32.4996C28.0704 32.4288 28.063 32.3538 28.0724 32.2798C28.0909 31.8581 28.1643 31.4405 28.2907 31.0377C28.4691 30.3165 28.5875 29.5818 28.6448 28.841C28.6625 28.6404 28.6817 28.4265 28.6994 28.1993C28.7136 27.9903 28.7547 27.784 28.8218 27.5856C28.8819 27.4159 28.9833 27.2638 29.1169 27.143C29.2688 27.015 29.4645 26.951 29.6627 26.9645C29.7097 26.9661 29.7556 26.9795 29.7961 27.0035C29.8365 27.0275 29.8703 27.0613 29.8943 27.1017C29.9578 27.1932 30.0418 27.2965 30.1259 27.416C30.2313 27.5472 30.3556 27.662 30.4947 27.7567C30.6872 27.8778 30.9092 27.9437 31.1365 27.947C32.2282 28.0021 33.3469 28.0434 34.4927 28.071C35.6384 28.0985 36.7577 28.1118 37.8503 28.1108C38.7237 28.1108 39.5651 28.1019 40.3745 28.0842C41.1839 28.0665 42.0253 28.0572 42.8986 28.0562C43.1711 28.0562 43.4484 28.0518 43.7307 28.0429C44.0095 28.0346 44.2877 28.012 44.5642 27.9751C44.7658 27.9462 44.955 27.8608 45.11 27.7287C45.2499 27.6017 45.376 27.4603 45.4862 27.3068C45.5954 27.1593 45.6854 27.0294 45.7577 26.9114C45.7794 26.8626 45.8136 26.8205 45.8569 26.7891C45.9001 26.7578 45.9509 26.7384 46.004 26.7329C46.3138 26.7329 46.5086 26.8524 46.5941 27.0884C46.6749 27.3008 46.6781 27.5349 46.603 27.7494Z" fill="white"/>
<path d="M59.7857 37.1379C59.786 37.3397 59.749 37.5397 59.6765 37.728C59.6107 37.9097 59.4914 38.0671 59.3342 38.1794C59.1597 38.2935 58.9518 38.3455 58.7441 38.327C58.4444 38.2923 58.1606 38.1736 57.9254 37.9847C57.8512 37.94 57.7869 37.8807 57.7362 37.8105C57.6855 37.7403 57.6495 37.6605 57.6303 37.5761C57.5846 37.3946 57.5344 37.2117 57.4828 37.0302C57.4335 36.8612 57.3599 36.7002 57.2645 36.5522C57.2069 36.479 57.1315 36.4217 57.0455 36.3858C56.9595 36.3499 56.8658 36.3366 56.7732 36.3472C56.3996 36.3453 56.029 36.4149 55.6815 36.5522C55.3499 36.6813 55.0376 36.8556 54.7536 37.0701C54.4914 37.2679 54.2691 37.5137 54.0986 37.7944C53.9421 38.0392 53.8568 38.3227 53.8522 38.6132V45.2444C53.8554 45.364 53.8698 45.483 53.895 45.5999C53.9172 45.8698 54.02 46.1268 54.1901 46.3376C54.3405 46.5175 54.5324 46.6582 54.7492 46.7477C54.9794 46.8419 55.2237 46.8973 55.472 46.9114C55.7361 46.9291 55.9958 46.938 56.2495 46.938C56.4147 46.938 56.4959 47.1017 56.4959 47.4292C56.5034 47.4793 56.4926 47.5304 56.4655 47.5732C56.4384 47.616 56.3968 47.6477 56.3483 47.6623C56.2551 47.688 56.1589 47.7014 56.0621 47.7022C55.61 47.7026 55.1585 47.671 54.7108 47.6077C54.2638 47.5432 53.8126 47.5112 53.361 47.5119C52.85 47.5114 52.3395 47.5434 51.8326 47.6077C51.3251 47.6708 50.8142 47.7023 50.3028 47.7022C50.1674 47.6971 50.0338 47.6697 49.9074 47.621C49.8371 47.6012 49.7758 47.5579 49.7336 47.4983C49.6914 47.4387 49.671 47.3664 49.6758 47.2935C49.6701 47.2128 49.695 47.1329 49.7456 47.0697C49.7962 47.0066 49.8687 46.9648 49.9487 46.9527C50.1302 46.907 50.3308 46.8613 50.5492 46.8155C50.7727 46.7682 50.9886 46.6902 51.1909 46.5839C51.3018 46.5179 51.3955 46.4265 51.4642 46.3173C51.5329 46.208 51.5748 46.084 51.5862 45.9555C51.6582 45.5953 51.704 45.2305 51.7234 44.8638C51.7411 44.5009 51.75 44.137 51.75 43.7721C51.75 43.063 51.7456 42.408 51.7367 41.8071C51.7264 41.2067 51.7234 40.5516 51.7234 39.842C51.7234 39.606 51.7234 39.3611 51.7087 39.1044C51.7025 38.861 51.6525 38.6206 51.5612 38.3948C51.5045 38.2012 51.3896 38.0297 51.2322 37.9036C51.0945 37.8022 50.949 37.7119 50.797 37.6336C50.6598 37.5613 50.5329 37.4861 50.4149 37.4153C50.357 37.381 50.3082 37.3334 50.2725 37.2765C50.2368 37.2195 50.2153 37.1548 50.2098 37.0878C50.2474 36.9955 50.3149 36.9185 50.4016 36.8694C50.4916 36.8148 50.5742 36.7691 50.6465 36.7322C50.828 36.6422 51.005 36.5508 51.1791 36.4593C51.3532 36.3678 51.5287 36.269 51.7116 36.1643C51.8638 36.0767 52.0092 35.9781 52.1468 35.8692L52.6396 35.4871C52.797 35.3646 52.961 35.2509 53.1308 35.1463C53.2646 35.0576 53.4153 34.9973 53.5734 34.9693C53.5954 34.9604 53.6193 34.957 53.6429 34.9593C53.6665 34.9616 53.6892 34.9696 53.7091 34.9826C53.7435 35.0083 53.78 35.031 53.8183 35.0504C53.8628 35.1545 53.8902 35.2651 53.8994 35.3779C53.9194 35.5409 53.9287 35.705 53.9275 35.8692V36.716C53.9452 36.6437 54.075 36.5154 54.3096 36.3339C54.5953 36.1205 54.8966 35.9287 55.2109 35.76C55.5963 35.5506 55.9979 35.3725 56.4118 35.2275C56.8321 35.0764 57.2751 34.9981 57.7218 34.9959C58.0654 34.9835 58.4069 35.0539 58.7176 35.2009C58.9657 35.3256 59.1841 35.5022 59.3578 35.7187C59.5198 35.9241 59.6364 36.1614 59.7001 36.415C59.7573 36.6517 59.786 36.8944 59.7857 37.1379Z" fill="white"/>
<path d="M77.0874 45.5705C77.0742 45.6535 77.0565 45.7358 77.0343 45.8169C76.9005 46.3803 76.5718 46.8782 76.1063 47.2228C75.643 47.5734 75.0764 47.7602 74.4954 47.7539C73.8954 47.7539 73.4224 47.5631 73.0762 47.1815C72.7215 46.7836 72.4685 46.3058 72.3386 45.7888C72.1196 46.0809 71.8676 46.3468 71.5876 46.581C71.2776 46.8426 70.9443 47.0752 70.5919 47.2759C70.2342 47.4824 69.8541 47.6473 69.4589 47.7671C69.0921 47.8825 68.7103 47.9427 68.3259 47.9456C67.3984 47.9456 66.7479 47.6771 66.3741 47.1402C66.0004 46.6032 65.814 45.9255 65.815 45.1073C65.8123 44.7165 65.9214 44.3332 66.1292 44.0023C66.3435 43.658 66.6103 43.3494 66.92 43.0876C67.2377 42.8147 67.5839 42.5768 67.9526 42.3781C68.2929 42.1929 68.6441 42.0288 69.0045 41.8868C69.6398 41.6508 70.2171 41.4462 70.7364 41.2731C71.2557 41.1 71.8424 40.9313 72.4964 40.7671V38.6663C72.4964 37.9022 72.3558 37.288 72.0745 36.8238C71.7932 36.3595 71.2429 36.1274 70.4237 36.1274C69.9695 36.1063 69.5177 36.205 69.1137 36.4136C68.5471 36.7306 68.1244 37.2536 67.9335 37.8741C67.8612 38.1293 67.8066 38.3167 67.7697 38.448C67.6691 38.7522 67.4671 39.0127 67.1973 39.1856C66.9168 39.3803 66.5828 39.4834 66.2414 39.4807C66.1602 39.4918 66.0779 39.4709 66.0118 39.4225C65.9457 39.374 65.9011 39.3018 65.8873 39.221C65.8524 39.0641 65.8341 38.9038 65.8327 38.743C65.8327 38.3064 66.0147 37.8564 66.3786 37.3932C66.7659 36.9047 67.2152 36.4688 67.7151 36.0965C68.248 35.6994 68.8302 35.3731 69.4471 35.1257C69.9803 34.8894 70.5546 34.7596 71.1377 34.7437C71.2977 34.7462 71.4574 34.7595 71.6157 34.7835C71.8075 34.8115 72.0022 34.844 72.2058 34.8794C72.3994 34.9147 72.591 34.9605 72.7796 35.0166C72.9315 35.0587 73.0795 35.1135 73.2222 35.1803C73.8222 35.4901 74.1949 35.8948 74.3405 36.3945C74.4882 36.939 74.5582 37.5017 74.5485 38.0659C74.5485 38.7544 74.5396 39.4866 74.5219 40.2626C74.5042 41.0385 74.4949 41.7707 74.4939 42.4592C74.4939 42.6229 74.4939 42.8649 74.4806 43.1821C74.4673 43.4992 74.4703 43.8282 74.4806 44.1646C74.4909 44.5009 74.5072 44.8196 74.5352 45.1205C74.5374 45.3336 74.5878 45.5434 74.6827 45.7342C74.7532 45.8607 74.871 45.9541 75.0102 45.9939C75.1533 46.0394 75.3026 46.0623 75.4528 46.0617C75.6218 46.0684 75.79 46.0356 75.9441 45.9659C76.0626 45.9082 76.1728 45.8348 76.2716 45.7475C76.3615 45.6664 76.4442 45.5897 76.5165 45.5159C76.5829 45.4467 76.6688 45.3993 76.7628 45.3802C76.9797 45.3256 77.0874 45.389 77.0874 45.5705ZM72.4831 42.0594C72.4768 41.9451 72.4635 41.8313 72.4433 41.7186C72.2795 41.7555 72.0878 41.8042 71.8694 41.8661C71.6511 41.9281 71.4268 42.0033 71.2011 42.0845C70.9754 42.1656 70.7586 42.2482 70.5461 42.3308C70.3337 42.4135 70.1508 42.4784 69.987 42.5359C69.4938 42.7185 69.0364 42.9861 68.6357 43.3266C68.4358 43.492 68.2764 43.701 68.1698 43.9376C68.0631 44.1741 68.0121 44.4319 68.0205 44.6912C68.0022 45.1369 68.1268 45.5768 68.376 45.9467C68.6121 46.2742 69.0217 46.4379 69.6049 46.4379C70.0082 46.4324 70.4049 46.3345 70.7645 46.1517C71.1272 45.9806 71.4557 45.7446 71.7337 45.4554C71.9145 45.2618 72.0701 45.0462 72.1969 44.8137C72.3382 44.5948 72.4312 44.3484 72.4698 44.0908C72.4673 44.0045 72.4718 43.9182 72.4831 43.8326C72.4901 43.8011 72.4946 43.769 72.4964 43.7368V42.5359C72.5003 42.3589 72.4959 42.2 72.4831 42.0594Z" fill="white"/>
<path d="M87.0497 35.6907C87.0497 37.3282 87.0452 38.9431 87.0364 40.5354C87.0275 42.1277 87.0226 43.7426 87.0216 45.3801C87.0216 45.9624 87.0084 46.5628 86.9818 47.1814C86.9553 47.8 86.9061 48.4005 86.8343 48.9827C86.7113 50.074 86.2856 51.1093 85.6054 51.9715C84.929 52.8191 84.1369 53.5674 83.2524 54.1947C83.1169 54.298 82.9761 54.394 82.8305 54.4824C82.6896 54.5826 82.5247 54.6437 82.3525 54.6594H82.2979C82.261 54.5857 82.23 54.5119 82.202 54.4544C82.1731 54.3879 82.1315 54.3278 82.0796 54.2774C82.1156 54.2033 82.1612 54.1344 82.2153 54.0723C82.2699 54.0089 82.3245 53.9395 82.379 53.8672C82.6888 53.5024 82.9937 53.1522 83.2937 52.8169C83.6062 52.4629 83.8765 52.0737 84.0992 51.6573C84.347 51.1832 84.5306 50.6781 84.645 50.1555C84.755 49.6386 84.8279 49.1146 84.8633 48.5873C84.8988 48.0503 84.9135 47.5133 84.9047 46.9764C84.8958 46.4394 84.8899 45.9083 84.8899 45.3801C84.8899 44.3966 84.8948 43.4097 84.9047 42.4193C84.9145 41.4289 84.9189 40.4415 84.9179 39.457C84.9179 39.2579 84.9179 38.9982 84.9047 38.6796C84.9107 38.4306 84.8603 38.1834 84.7571 37.9567C84.6642 37.7552 84.5055 37.5914 84.3072 37.492C84.1273 37.4059 83.9396 37.3373 83.7466 37.2869C83.5651 37.2427 83.4058 37.1969 83.2701 37.1512C83.2078 37.1351 83.1531 37.0977 83.1156 37.0453C83.0781 36.993 83.0602 36.9292 83.065 36.865C83.0671 36.8093 83.0802 36.7546 83.1035 36.704C83.1268 36.6533 83.1598 36.6078 83.2008 36.57C83.3099 36.4977 83.543 36.3708 83.8971 36.1879C84.2511 36.0049 84.6347 35.8161 85.0301 35.6155C85.4254 35.4148 85.7987 35.2378 86.135 35.0829C86.3359 34.9736 86.5523 34.8955 86.7767 34.8513C86.8233 34.8489 86.8697 34.8575 86.9123 34.8765C86.9549 34.8954 86.9923 34.9242 87.0216 34.9605C87.0216 35.0873 87.0216 35.2098 87.0364 35.3293C87.0511 35.4488 87.0497 35.5683 87.0497 35.6907ZM87.2946 28.462C87.2986 28.6585 87.2634 28.8538 87.1909 29.0364C87.1185 29.2191 87.0103 29.3854 86.8726 29.5257C86.738 29.6689 86.5749 29.7824 86.3937 29.8586C86.2125 29.9348 86.0173 29.9722 85.8208 29.9682C85.4411 29.9564 85.0802 29.8003 84.8116 29.5317C84.543 29.2631 84.3869 28.9022 84.375 28.5225C84.3657 28.1275 84.5125 27.7447 84.7837 27.4574C84.9145 27.3144 85.0742 27.201 85.2523 27.1247C85.4304 27.0484 85.6227 27.0109 85.8164 27.0148C86.0102 27.0097 86.203 27.0433 86.3837 27.1138C86.5643 27.1842 86.729 27.29 86.8682 27.4249C87.0075 27.558 87.1174 27.7188 87.1908 27.8969C87.2642 28.075 87.2996 28.2665 87.2946 28.4591V28.462Z" fill="white"/>
<path d="M106.29 45.5705C106.277 45.6536 106.259 45.7359 106.236 45.8169C106.102 46.3805 105.773 46.8786 105.308 47.2228C104.845 47.5734 104.279 47.7603 103.698 47.7539C103.097 47.7539 102.624 47.5631 102.279 47.1815C101.924 46.7835 101.671 46.3057 101.541 45.7888C101.323 46.0813 101.071 46.3471 100.79 46.581C100.481 46.8433 100.148 47.0759 99.7946 47.2759C99.4375 47.4824 99.0578 47.6473 98.6631 47.7671C98.2963 47.8824 97.9145 47.9425 97.5301 47.9456C96.6027 47.9456 95.9521 47.6771 95.5783 47.1402C95.2046 46.6032 95.0182 45.9255 95.0192 45.1073C95.0169 44.7168 95.1254 44.3337 95.332 44.0023C95.5472 43.6583 95.8144 43.3498 96.1242 43.0876C96.4419 42.8147 96.7882 42.5768 97.1568 42.3781C97.4966 42.1929 97.8474 42.0289 98.2072 41.8868C98.8445 41.6508 99.4223 41.4462 99.9406 41.2731C100.459 41.1 101.046 40.9313 101.701 40.7671V38.6663C101.701 37.9022 101.559 37.288 101.277 36.8238C100.995 36.3595 100.445 36.1274 99.6279 36.1274C99.1737 36.1066 98.722 36.2052 98.3179 36.4136C98.014 36.5848 97.7493 36.8174 97.5404 37.0967C97.3647 37.331 97.2309 37.5941 97.145 37.8741C97.0713 38.1293 97.0167 38.3167 96.9813 38.448C96.8801 38.7523 96.6776 39.0127 96.4074 39.1856C96.1275 39.3805 95.794 39.4836 95.4529 39.4807C95.3716 39.4918 95.2891 39.471 95.2228 39.4226C95.1565 39.3742 95.1115 39.3019 95.0974 39.221C95.0625 39.0641 95.0442 38.9038 95.0428 38.743C95.0428 38.3064 95.2248 37.8564 95.5887 37.3932C95.9769 36.905 96.4266 36.4692 96.9267 36.0965C97.4563 35.7 98.035 35.3737 98.6483 35.1257C99.1821 34.8894 99.7569 34.7596 100.34 34.7437C100.5 34.7462 100.66 34.7595 100.818 34.7835C101.01 34.8115 101.205 34.844 101.409 34.8794C101.602 34.9147 101.793 34.9605 101.981 35.0166C102.133 35.0587 102.281 35.1135 102.423 35.1803C103.024 35.4901 103.398 35.8948 103.543 36.3945C103.693 36.9388 103.765 37.5014 103.759 38.0659C103.759 38.7544 103.749 39.4866 103.731 40.2626C103.712 41.0385 103.703 41.7707 103.704 42.4592C103.704 42.6229 103.704 42.8649 103.691 43.1821C103.677 43.4992 103.68 43.8282 103.691 44.1646C103.701 44.5009 103.717 44.8196 103.745 45.1205C103.748 45.3335 103.799 45.5432 103.893 45.7342C103.963 45.8607 104.081 45.9541 104.22 45.9939C104.363 46.0393 104.513 46.0622 104.663 46.0617C104.832 46.0688 105 46.0359 105.154 45.9659C105.273 45.9082 105.383 45.8348 105.482 45.7475C105.573 45.6664 105.654 45.5897 105.728 45.5159C105.794 45.4468 105.879 45.3994 105.973 45.3802C106.184 45.33 106.29 45.3935 106.29 45.5705ZM101.693 42.0594C101.687 41.9451 101.673 41.8312 101.652 41.7186C101.488 41.7555 101.298 41.8042 101.08 41.8661C100.861 41.9281 100.637 42.0033 100.41 42.0845C100.183 42.1656 99.9672 42.2482 99.7562 42.3308C99.5453 42.4135 99.3594 42.4784 99.1956 42.5359C98.7029 42.7185 98.246 42.9861 97.8458 43.3266C97.6459 43.492 97.4865 43.701 97.3799 43.9376C97.2732 44.1741 97.2222 44.4319 97.2306 44.6912C97.2116 45.137 97.3362 45.5771 97.5861 45.9467C97.8222 46.2742 98.2313 46.4379 98.8135 46.4379C99.2169 46.4325 99.6136 46.3346 99.9731 46.1517C100.336 45.981 100.665 45.7449 100.942 45.4554C101.124 45.2623 101.28 45.0466 101.407 44.8137C101.548 44.5945 101.641 44.3482 101.68 44.0908C101.677 44.0045 101.682 43.9182 101.693 43.8326C101.7 43.8011 101.705 43.769 101.707 43.7368V42.5359C101.706 42.3589 101.701 42.2 101.693 42.0594Z" fill="white"/>
<path d="M122.338 37.1379C122.338 37.3397 122.301 37.5398 122.229 37.728C122.163 37.9096 122.045 38.067 121.888 38.1795C121.713 38.2932 121.505 38.3452 121.298 38.327C120.998 38.2917 120.714 38.1732 120.479 37.9847C120.406 37.9394 120.343 37.8799 120.294 37.8097C120.245 37.7394 120.21 37.66 120.193 37.5761C120.147 37.3946 120.097 37.2117 120.045 37.0303C119.997 36.861 119.923 36.6999 119.827 36.5523C119.769 36.479 119.694 36.4217 119.608 36.3858C119.522 36.3499 119.428 36.3366 119.336 36.3472C118.962 36.3453 118.591 36.4149 118.244 36.5523C117.912 36.6817 117.6 36.8559 117.316 37.0701C117.054 37.2679 116.832 37.5137 116.661 37.7944C116.506 38.0396 116.421 38.3229 116.416 38.6132V45.2444C116.415 45.3636 116.425 45.4826 116.446 45.6C116.465 45.8689 116.565 46.1258 116.732 46.3376C116.883 46.5172 117.075 46.6579 117.292 46.7477C117.523 46.842 117.767 46.8973 118.015 46.9115C118.279 46.9292 118.538 46.938 118.793 46.938C118.956 46.938 119.039 47.1018 119.039 47.4293C119.046 47.4793 119.035 47.5303 119.008 47.573C118.981 47.6157 118.94 47.6474 118.892 47.6624C118.798 47.6879 118.702 47.7013 118.605 47.7022C118.153 47.7027 117.702 47.6711 117.254 47.6078C116.807 47.5432 116.355 47.5112 115.903 47.5119C115.392 47.5115 114.881 47.5435 114.374 47.6078C113.867 47.6708 113.357 47.7023 112.846 47.7022C112.711 47.6974 112.577 47.67 112.451 47.6211C112.379 47.5958 112.318 47.548 112.276 47.4849C112.235 47.4218 112.215 47.3469 112.219 47.2713C112.224 47.1958 112.253 47.1239 112.302 47.0664C112.351 47.0089 112.418 46.969 112.492 46.9528C112.673 46.907 112.874 46.8613 113.092 46.8156C113.315 46.7682 113.531 46.6903 113.733 46.584C113.844 46.5183 113.938 46.427 114.007 46.3177C114.076 46.2084 114.118 46.0843 114.129 45.9555C114.202 45.5955 114.247 45.2306 114.265 44.8638C114.283 44.5009 114.293 44.1365 114.293 43.7721C114.293 43.063 114.288 42.408 114.278 41.8071C114.269 41.2062 114.262 40.5526 114.259 39.8465C114.259 39.6105 114.259 39.3656 114.246 39.1089C114.24 38.8654 114.19 38.6251 114.099 38.3993C114.043 38.2055 113.928 38.0339 113.771 37.908C113.637 37.8056 113.496 37.7139 113.348 37.6336C113.212 37.5613 113.084 37.4861 112.966 37.4153C112.908 37.3808 112.86 37.3331 112.824 37.2762C112.789 37.2192 112.767 37.1546 112.762 37.0878C112.798 36.9953 112.866 36.9182 112.952 36.8695C113.044 36.8149 113.125 36.7691 113.199 36.7323C113.38 36.6423 113.557 36.5508 113.73 36.4593C113.902 36.3679 114.081 36.269 114.262 36.1643C114.417 36.0767 114.565 35.9781 114.705 35.8692L115.196 35.4871C115.35 35.3579 115.511 35.2372 115.679 35.1257C115.812 35.0372 115.963 34.977 116.121 34.9487C116.143 34.9396 116.167 34.936 116.191 34.9383C116.215 34.9406 116.238 34.9487 116.258 34.962C116.292 34.988 116.329 35.0108 116.367 35.0298C116.411 35.1341 116.439 35.2446 116.449 35.3573C116.468 35.5204 116.477 35.6844 116.477 35.8486V36.6954C116.494 36.6231 116.624 36.4947 116.859 36.3133C117.144 36.0998 117.445 35.908 117.759 35.7394C118.144 35.5303 118.546 35.3522 118.959 35.2068C119.38 35.0558 119.823 34.9775 120.269 34.9752C120.613 34.9629 120.955 35.0332 121.265 35.1803C121.514 35.3049 121.733 35.4815 121.907 35.6981C122.069 35.9035 122.185 36.1408 122.248 36.3944C122.308 36.6376 122.338 36.8874 122.338 37.1379Z" fill="white"/>
</svg>
